<svg id="Capa_1" enable-background="new 0 0 512 512" height="512" viewBox="0 0 512 512" width="512" xmlns="http://www.w3.org/2000/svg" xmlns:xlink="http://www.w3.org/1999/xlink"><linearGradient id="SVGID_1_" gradientUnits="userSpaceOnUse" x1="74.98" x2="437.019" y1="437.019" y2="74.98"><stop offset=".0056" stop-color="#0056e0"/><stop offset="1" stop-color="#00e5b8"/></linearGradient><radialGradient id="SVGID_2_" cx="175.887" cy="330.027" gradientUnits="userSpaceOnUse" r="365.419"><stop offset="0" stop-color="#0072ff"/><stop offset=".1327" stop-color="#0089f1" stop-opacity=".867"/><stop offset=".3968" stop-color="#00b1d8" stop-opacity=".603"/><stop offset=".6383" stop-color="#00cec6" stop-opacity=".362"/><stop offset=".8474" stop-color="#00dfbb" stop-opacity=".153"/><stop offset="1" stop-color="#00e5b8" stop-opacity="0"/></radialGradient><linearGradient id="lg1"><stop offset="0" stop-color="#3ca1ff"/><stop offset=".8352" stop-color="#85ffe0"/><stop offset=".9067" stop-color="#9dffe6"/><stop offset="1" stop-color="#c2fff0"/></linearGradient><linearGradient id="SVGID_3_" gradientTransform="matrix(.707 .707 -.707 .707 277.213 -97.252)" gradientUnits="userSpaceOnUse" x1="234.787" x2="234.787" xlink:href="#lg1" y1="604.627" y2="72.112"/><linearGradient id="SVGID_4_" gradientTransform="matrix(-.707 -.707 -.707 .707 639.252 264.787)" gradientUnits="userSpaceOnUse" x1="275.34" x2="275.34" xlink:href="#lg1" y1="527.543" y2="136.005"/><linearGradient id="lg2"><stop offset="0" stop-color="#85ffe0"/><stop offset=".5562" stop-color="#cbfff2"/><stop offset="1" stop-color="#fff"/></linearGradient><linearGradient id="SVGID_5_" gradientTransform="matrix(-.707 .707 -.707 -.707 639.252 480.877)" gradientUnits="userSpaceOnUse" x1="246.117" x2="145.74" xlink:href="#lg2" y1="430.012" y2="430.012"/><linearGradient id="lg3"><stop offset="0" stop-color="#3ca1ff"/><stop offset=".7527" stop-color="#85ffe0"/><stop offset=".8599" stop-color="#9dffe6"/><stop offset="1" stop-color="#c2fff0"/></linearGradient><linearGradient id="SVGID_6_" gradientTransform="matrix(.707 .707 -.707 .707 277.213 -97.252)" gradientUnits="userSpaceOnUse" x1="209.926" x2="209.926" xlink:href="#lg3" y1="423.424" y2="296.766"/><linearGradient id="SVGID_7_" gradientTransform="matrix(-.707 .707 -.707 -.707 639.252 480.877)" gradientUnits="userSpaceOnUse" x1="258.757" x2="132.032" xlink:href="#lg3" y1="414.759" y2="414.759"/><linearGradient id="SVGID_8_" gradientTransform="matrix(.707 .707 -.707 .707 277.213 -97.252)" gradientUnits="userSpaceOnUse" x1="234.787" x2="234.787" xlink:href="#lg1" y1="262.048" y2="-.116"/><linearGradient id="SVGID_9_" gradientTransform="matrix(.707 .707 -.707 .707 277.213 -97.252)" gradientUnits="userSpaceOnUse" x1="234.787" x2="234.787" xlink:href="#lg2" y1="208.918" y2="114.293"/><linearGradient id="SVGID_10_" gradientTransform="matrix(.707 .707 -.707 .707 277.213 -97.252)" gradientUnits="userSpaceOnUse" x1="234.787" x2="234.787" y1="656.358" y2="-108.151"><stop offset=".0056" stop-color="#230be0"/><stop offset="1" stop-color="#00e5b8"/></linearGradient><linearGradient id="SVGID_11_" gradientTransform="matrix(.707 .707 -.707 .707 244.107 -102.178)" gradientUnits="userSpaceOnUse" x1="328.748" x2="328.748" xlink:href="#lg2" y1="388.85" y2="304.68"/><g><circle cx="256" cy="256" fill="url(#SVGID_1_)" r="256"/><circle cx="256" cy="256" fill="url(#SVGID_2_)" r="256"/><path d="m277.542 364.081c-.016-4.21-.026-8.43-.029-12.659-.004-5.181 2.707-9.991 7.167-12.725 10.466-6.414 20.904-12.818 31.308-19.213 9.261-5.687 10.686-18.643 2.94-26.478-.03-.03-.06-.061-.091-.091-3.983-4.019-9.674-5.805-15.209-4.766-3.86.724-7.724 1.451-11.591 2.18-3.413.643-7.012-.107-9.726-2.291-5.258-4.229-5.804-11.855-1.451-16.765-13.37-13.386-26.749-26.764-40.135-40.135-4.91 4.353-12.537 3.807-16.766-1.451-2.184-2.714-2.934-6.313-2.291-9.726.708-3.754 1.413-7.504 2.116-11.251 1.063-5.659-.551-11.599-4.651-15.679-7.804-7.751-20.777-6.373-26.488 2.896-6.438 10.438-12.885 20.912-19.343 31.412-2.736 4.448-7.54 7.152-12.713 7.147-4.234-.004-8.46-.013-12.674-.029-22.464-.102-44.615 8.287-61.489 25.665-37.577 38.986-35.896 111.92 8.652 156.796 44.876 44.548 117.81 46.23 156.796 8.652 17.38-16.875 25.771-39.024 25.668-61.489z" fill="url(#SVGID_3_)"/><path d="m106.21 384.444c44.654 45.386 116.853 47.843 155.919 9.76 5.974-5.863 10.898-12.349 14.792-19.266-2.236 18.649-10.474 36.482-25.043 50.633-38.986 37.577-111.92 35.896-156.796-8.652-38.075-38.113-44.533-96.737-22.931-137.23-5.211 35.28 5.532 75.634 34.059 104.755z" fill="url(#SVGID_4_)"/><path d="m227.125 336.479c-17.375-17.027-34.576-34.228-51.604-51.604-7.211 7.25-14.419 14.504-21.623 21.762 16.913 17.397 34.067 34.551 51.464 51.464 7.259-7.203 14.513-14.411 21.763-21.622z" fill="url(#SVGID_5_)"/><path d="m144.391 316.221c-2.93-3.023-7.722-3.05-10.692-.047s-3.023 7.918-.106 10.941c7.055 7.312 14.163 14.57 21.326 21.773 3.621-3.626 7.242-7.253 10.863-10.879-7.178-7.213-14.309-14.477-21.391-21.788z" fill="url(#SVGID_6_)"/><path d="m195.779 367.609c-10.09-9.775-20.089-19.641-29.996-29.599-2.969-2.984-7.81-2.98-10.8.022s-3.025 7.878-.063 10.856c9.885 9.942 19.874 19.781 29.965 29.518 3.024 2.916 7.938 2.864 10.941-.106 3.003-2.969 2.976-7.76-.047-10.691z" fill="url(#SVGID_7_)"/><path d="m418.101 100.119c-2.093.022-4.189.045-6.288.069.024-2.099.047-4.195.069-6.288.178-13.524-16.35-19.846-26.105-10.241-12.193 12.045-24.378 24.098-36.553 36.161-1.693 1.677-2.967 3.713-3.722 5.948-1.6 4.736-3.202 9.481-4.805 14.234-.855 2.536-2.371 4.813-4.393 6.599-2.364 12.026-4.742 24.107-7.124 36.22 12.114-2.382 24.195-4.76 36.22-7.124 1.786-2.022 4.063-3.537 6.599-4.393 4.753-1.603 9.498-3.205 14.234-4.805 2.236-.755 4.271-2.03 5.948-3.723 12.063-12.175 24.116-24.36 36.161-36.553 9.605-9.754 3.283-26.282-10.241-26.104z" fill="url(#SVGID_8_)"/><path d="m365.399 175.697c-9.604-9.794-19.302-19.492-29.096-29.096-3.848 3.399-7.696 6.797-11.543 10.196-2.14 12.253-4.294 24.56-6.453 36.896 12.337-2.159 24.644-4.314 36.896-6.454 3.399-3.847 6.798-7.694 10.196-11.542z" fill="url(#SVGID_9_)"/><path d="m355.204 187.239c-10.056-10.239-20.204-20.387-30.443-30.443-39.405 34.81-78.766 69.618-117.99 104.485-3.3 2.935-3.462 8.064-.348 11.204 10.988 11.074 22.019 22.106 33.093 33.093 3.139 3.114 8.269 2.952 11.204-.348 34.865-39.224 69.674-78.586 104.484-117.991z" fill="url(#SVGID_10_)"/><path d="m249.369 379.134c-5.972 5.881-15.822 5.967-21.95.157-6.129-5.81-6.19-15.376-.186-21.329 6.005-5.953 15.788-5.993 21.885-.113 6.093 5.881 6.223 15.402.251 21.285z" fill="url(#SVGID_11_)"/></g></svg>